<svg xmlns="http://www.w3.org/2000/svg" viewBox="0 0 512 512" width="512" height="512">
  <defs>
    <linearGradient id="bg" x1="0" y1="0" x2="1" y2="1">
      <stop offset="0%" stop-color="#003366"/>
      <stop offset="100%" stop-color="#004d99"/>
    </linearGradient>
  </defs>
  <rect width="512" height="512" rx="112" fill="url(#bg)"/>
  <!-- Chat bubble -->
  <path d="M85 133 C85 101 111 75 143 75 L369 75 C401 75 427 101 427 133 L427 293 C427 325 401 351 369 351 L181 351 L117 417 L117 351 L143 351 C111 351 85 325 85 293 Z" fill="#fff"/>
  <!-- 4U logo mark - handwritten style -->
  <g transform="translate(256,208)" fill="none" stroke-linecap="round" stroke-linejoin="round">
    <!-- "4" stroke in dark navy -->
    <path d="M-80,-75 C-75,-70 -101,5 -107,27 C-107,27 -59,27 -37,27" stroke="#1a3a5c" stroke-width="18" fill="none"/>
    <path d="M-53,-37 L-53,59" stroke="#1a3a5c" stroke-width="18" fill="none"/>
    <!-- "U" stroke in medium blue -->
    <path d="M5,-53 C5,-48 -5,32 11,53 C27,75 59,59 69,21 C80,-16 96,-64 101,-75" stroke="#4a7eb5" stroke-width="18" fill="none"/>
  </g>
</svg>
