<svg xmlns="http://www.w3.org/2000/svg" xmlns:xlink="http://www.w3.org/1999/xlink" viewBox="0 0 192 192" width="192" height="192">
  <defs>
    <linearGradient id="bg" x1="0" y1="0" x2="1" y2="1">
      <stop offset="0%" stop-color="#003366"/>
      <stop offset="100%" stop-color="#004d99"/>
    </linearGradient>
    <clipPath id="bubbleClip">
      <path d="M40 52 C40 40 50 30 62 30 L130 30 C142 30 152 40 152 52 L152 108 C152 120 142 130 130 130 L72 130 L50 152 L50 130 L62 130 C50 130 40 120 40 108 Z"/>
    </clipPath>
  </defs>
  <rect width="192" height="192" rx="42" fill="url(#bg)"/>
  <path d="M40 52 C40 40 50 30 62 30 L130 30 C142 30 152 40 152 52 L152 108 C152 120 142 130 130 130 L72 130 L50 152 L50 130 L62 130 C50 130 40 120 40 108 Z" fill="#fff"/>
  <image x="52" y="38" width="90" height="86" clip-path="url(#bubbleClip)" href="C4U.png"/>
</svg>
